#!OML:ASF X:\für Bonn\!DataBase\2005_08_11_Bastian_Final\c3d\Bastian.ASF
:FULLY-SPECIFIED
:DEGREES
61
root 7.46103 16.5257 -4.00476 199.635 82.1576 -144.83
lowerback 41.0385 -4.22238 3.07684
upperback 19.2315 -0.38297 4.80576
thorax 1.72952 1.10252 3.69264
lowerneck -1.81945 -11.3601 -5.17713
upperneck -6.66213 -14.5832 16.9937
head 0.0402596 -7.45787 5.63722
rclavicle -5.32743e-014 -6.20208e-014
rhumerus 6.00585 14.009 -67.1365
rradius 32.498
rwrist -2.78534
rhand -32.1007 -1.39883
rfingers 7.12502
rthumb -5.34599 -31.3114
lclavicle -5.32743e-014 -6.20208e-014
lhumerus -0.555116 -21.5698 86.013
lradius 34.8136
lwrist 17.2315
lhand -14.4717 -8.98258
lfingers 7.12502
lthumb 11.6742 20.6722
rfemur -19.235 -2.72749 23.4361
rtibia 44.9368
rfoot -8.3536 -2.41471
rtoes -9.59318
lfemur -14.8827 7.92994 -16.6269
ltibia 58.3643
lfoot -14.0888 -9.25579
ltoes -17.0008
62
root 7.44517 16.4751 -4.00888 199.548 82.1021 -145.009
lowerback 41.9056 -4.37662 3.32584
upperback 19.3887 -0.314151 4.90374
thorax 1.66524 1.18354 3.66034
lowerneck -1.99567 -11.4528 -4.89202
upperneck -7.17095 -14.6503 16.932
head -0.0990936 -7.51146 5.58323
rclavicle 3.97569e-015 -6.91771e-014
rhumerus 7.14193 13.6205 -66.565
rradius 32.2682
rwrist -2.55726
rhand -31.9301 -1.42767
rfingers 7.12502
rthumb -5.18126 -31.3443
lclavicle 3.97569e-015 -6.91771e-014
lhumerus -0.522408 -21.576 85.9417
lradius 34.7259
lwrist 17.2176
lhand -14.3445 -8.79216
lfingers 7.12502
lthumb 11.7969 20.8556
rfemur -19.9141 -2.9574 23.4082
rtibia 45.8208
rfoot -8.49306 -2.27974
rtoes -9.51672
lfemur -15.4537 8.3242 -16.7822
ltibia 58.6564
lfoot -14.6923 -8.93043
ltoes -16.6626
63
root 7.43053 16.4191 -4.01258 199.199 82.0721 -145.41
lowerback 42.83 -4.52854 3.54443
upperback 19.5263 -0.243284 4.9772
thorax 1.57255 1.26455 3.61699
lowerneck -2.21802 -11.5549 -4.61548
upperneck -7.56966 -14.7445 16.8674
head -0.196119 -7.57258 5.52147
rclavicle 1.90833e-014 -9.54166e-015
rhumerus 8.24417 13.2924 -65.9978
rradius 32.0805
rwrist -2.5125
rhand -31.8715 -1.5206
rfingers 7.12502
rthumb -5.12467 -31.4386
lclavicle 1.90833e-014 -9.54166e-015
lhumerus -0.555489 -21.6368 85.8288
lradius 34.7185
lwrist 17.2156
lhand -14.226 -8.62202
lfingers 7.12502
lthumb 11.9112 21.0191
rfemur -20.5889 -3.18164 23.3376
rtibia 46.7775
rfoot -8.68871 -2.11549
rtoes -9.607
lfemur -15.9102 8.62461 -16.9637
ltibia 59.0137
lfoot -15.3096 -8.61936
ltoes -15.512
64
root 7.41588 16.3595 -4.01799 199.067 82.0443 -145.622
lowerback 43.7183 -4.68473 3.78855
upperback 19.6731 -0.163319 5.05977
thorax 1.50924 1.35157 3.56833
lowerneck -2.57921 -11.6668 -4.39509
upperneck -7.83687 -14.8666 16.8542
head -0.22075 -7.63606 5.46707
rclavicle 1.51076e-014 9.78021e-014
rhumerus 9.39352 12.9614 -65.4042
rradius 31.8098
rwrist -2.44808
rhand -31.8665 -1.60035
rfingers 7.12502
rthumb -5.11979 -31.5185
lclavicle 1.51076e-014 9.78021e-014
lhumerus -0.548505 -21.6749 85.7049
lradius 34.6625
lwrist 17.1414
lhand -14.1044 -8.524
lfingers 7.12502
lthumb 12.0284 21.1103
rfemur -21.3208 -3.37907 23.2897
rtibia 47.7705
rfoot -8.86883 -1.98976
rtoes -9.41863
lfemur -16.3788 8.85445 -17.1242
ltibia 59.4458
lfoot -15.8602 -8.31523
ltoes -13.5899
65
root 7.4013 16.2993 -4.02414 198.929 82.0386 -145.833
lowerback 44.638 -4.8339 3.99777
upperback 19.81 -0.0786878 5.1473
thorax 1.43568 1.43696 3.54148
lowerneck -3.04667 -11.7764 -4.18577
upperneck -7.97395 -15.004 16.7943
head -0.192374 -7.69677 5.38783
rclavicle 4.77083e-014 1.59028e-015
rhumerus 10.5487 12.6768 -64.7582
rradius 31.5809
rwrist -2.46727
rhand -31.8267 -1.69259
rfingers 7.12502
rthumb -5.08137 -31.6117
lclavicle 4.77083e-014 1.59028e-015
lhumerus -0.568183 -21.6184 85.6263
lradius 34.629
lwrist 17.0191
lhand -13.9776 -8.35731
lfingers 7.12502
lthumb 12.1507 21.2698
rfemur -22.0604 -3.59372 23.2364
rtibia 48.7994
rfoot -9.07649 -1.82327
rtoes -9.57535
lfemur -16.8432 9.06555 -17.2864
ltibia 59.9487
lfoot -16.4053 -8.03468
ltoes -11.4752
66
root 7.38817 16.2384 -4.03159 198.766 82.0427 -146.125
lowerback 45.4935 -4.97782 4.20647
upperback 19.9244 0.00534342 5.24305
thorax 1.36131 1.51769 3.52314
lowerneck -3.49507 -11.8909 -4.07836
upperneck -8.06877 -15.1524 16.7999
head -0.140127 -7.76069 5.3406
rclavicle 1.51076e-014 5.96354e-014
rhumerus 11.6343 12.4318 -64.0824
rradius 31.3808
rwrist -2.47166
rhand -31.8795 -1.84014
rfingers 7.12502
rthumb -5.13234 -31.758
lclavicle 1.51076e-014 5.96354e-014
lhumerus -0.644903 -21.5581 85.5736
lradius 34.6038
lwrist 16.8087
lhand -13.8042 -8.23712
lfingers 7.12502
lthumb 12.3179 21.38
rfemur -22.8624 -3.80031 23.1603
rtibia 49.8383
rfoot -9.27199 -1.63108
rtoes -9.45248
lfemur -17.3753 9.23691 -17.4823
ltibia 60.5106
lfoot -17.0184 -7.74008
ltoes -9.50878
67
root 7.37502 16.1756 -4.03964 198.669 82.063 -146.389
lowerback 46.3355 -5.12549 4.42426
upperback 20.0174 0.086462 5.31783
thorax 1.27473 1.59627 3.4785
lowerneck -3.92186 -11.99 -3.95714
upperneck -8.18318 -15.2777 16.8189
head -0.0997256 -7.81523 5.29857
rclavicle 2.54444e-014 2.38542e-015
rhumerus 12.721 12.2013 -63.416
rradius 31.1531
rwrist -2.5282
rhand -31.9552 -1.95964
rfingers 7.12502
rthumb -5.20543 -31.8757
lclavicle 2.54444e-014 2.38542e-015
lhumerus -0.740158 -21.4647 85.5082
lradius 34.5975
lwrist 16.6291
lhand -13.6113 -8.08392
lfingers 7.12502
lthumb 12.5038 21.522
rfemur -23.7264 -3.99528 23.0851
rtibia 50.8957
rfoot -9.46194 -1.43124
rtoes -9.30525
lfemur -17.9763 9.39969 -17.6875
ltibia 61.1436
lfoot -17.6634 -7.44755
ltoes -7.77279
68
root 7.36179 16.1115 -4.04698 198.863 82.0868 -146.398
lowerback 48.1769 -5.37022 4.81442
upperback 19.1524 0.232338 5.27193
thorax 1.03755 1.6783 3.33211
lowerneck -4.16193 -12.0805 -3.80403
upperneck -8.43627 -15.375 16.8671
head -0.133241 -7.87108 5.28003
rclavicle -4.13472e-014 -1.74931e-014
rhumerus 13.7284 11.8844 -62.8351
rradius 30.8726
rwrist -2.47166
rhand -32.085 -1.96045
rfingers 7.12502
rthumb -5.33078 -31.8734
lclavicle -4.13472e-014 -1.74931e-014
lhumerus -0.895277 -21.4229 85.4268
lradius 34.5779
lwrist 16.3741
lhand -13.4003 -7.95758
lfingers 7.12502
lthumb 12.7073 21.6358
rfemur -24.6376 -4.12696 23.0563
rtibia 51.9597
rfoot -9.649 -1.25493
rtoes -8.9971
lfemur -18.6278 9.55177 -17.8628
ltibia 61.8302
lfoot -18.335 -7.14292
ltoes -6.44594
69
root 7.34984 16.0446 -4.05442 198.939 82.1492 -146.524
lowerback 49.1139 -5.48537 4.98452
upperback 19.1002 0.344204 5.35617
thorax 0.856366 1.75309 3.3236
lowerneck -4.24173 -12.1558 -3.72711
upperneck -8.7939 -15.4391 16.9087
head -0.221248 -7.92029 5.2874
rclavicle -2.06736e-014 7.95139e-015
rhumerus 14.6624 11.7623 -62.1375
rradius 30.6945
rwrist -2.59457
rhand -32.2835 -2.06583
rfingers 7.12502
rthumb -5.52243 -31.9739
lclavicle -2.06736e-014 7.95139e-015
lhumerus -1.11373 -21.3082 85.4153
lradius 34.5647
lwrist 16.1365
lhand -13.2194 -7.82924
lfingers 7.12502
lthumb 12.8817 21.7532
rfemur -25.5566 -4.27599 23.0053
rtibia 53.0419
rfoot -9.80675 -1.07427
rtoes -8.86139
lfemur -19.2817 9.69347 -18.0605
ltibia 62.576
lfoot -18.9607 -6.88401
ltoes -4.98846
70
root 7.33782 15.9758 -4.0617 199.379 82.1864 -146.305
lowerback 50.0498 -5.62606 5.24636
upperback 19.0188 0.468652 5.4218
thorax 0.656781 1.83938 3.24929
lowerneck -4.30398 -12.2452 -3.59738
upperneck -9.17266 -15.5207 16.9513
head -0.320973 -7.98168 5.28904
rclavicle 1.43125e-014 7.55382e-014
rhumerus 15.5417 11.5253 -61.4966
rradius 30.5237
rwrist -2.64734
rhand -32.4524 -2.12454
rfingers 7.12502
rthumb -5.68551 -32.0283
lclavicle 1.43125e-014 7.55382e-014
lhumerus -1.32 -21.2614 85.3593
lradius 34.5796
lwrist 15.8839
lhand -12.9854 -7.68789
lfingers 7.12502
lthumb 13.1073 21.8802
rfemur -26.5122 -4.37304 23.0121
rtibia 54.1324
rfoot -9.9583 -0.930013
rtoes -8.54441
lfemur -19.9892 9.79597 -18.2096
ltibia 63.3793
lfoot -19.5166 -6.6534
ltoes -3.53096
